<?xml version="1.0" encoding="utf-8"?>
<svg viewBox="0 0 660 280" xmlns="http://www.w3.org/2000/svg">
  <path d="M 25.892 99.694 Q 47.032 99.694 58.302 107.394 Q 69.572 115.094 69.572 131.474 Q 69.572 140.014 66.562 146.104 Q 63.552 152.194 57.812 156.044 Q 52.072 159.894 43.812 161.714 Q 35.552 163.534 24.912 163.534 L 16.092 163.534 L 16.092 197.694 L -1.548 197.694 L -1.548 102.074 Q 4.612 100.674 12.102 100.184 Q 19.592 99.694 25.892 99.694 Z M 27.152 114.954 Q 20.432 114.954 16.092 115.374 L 16.092 148.414 L 24.632 148.414 Q 37.372 148.414 44.232 144.844 Q 51.092 141.274 51.092 131.334 Q 51.092 126.574 49.272 123.354 Q 47.452 120.134 44.232 118.314 Q 41.012 116.494 36.602 115.724 Q 32.192 114.954 27.152 114.954 Z" style="fill: rgb(51, 51, 51);"/>
  <path d="M 84.831 197.694 L 84.831 91.854 L 101.771 89.054 L 101.771 125.314 Q 104.571 124.334 108.281 123.634 Q 111.991 122.934 115.631 122.934 Q 124.451 122.934 130.261 125.384 Q 136.071 127.834 139.571 132.244 Q 143.071 136.654 144.541 142.814 Q 146.011 148.974 146.011 156.534 L 146.011 197.694 L 129.071 197.694 L 129.071 159.194 Q 129.071 153.314 128.301 149.184 Q 127.531 145.054 125.781 142.464 Q 124.031 139.874 121.091 138.684 Q 118.151 137.494 113.811 137.494 Q 110.451 137.494 106.951 138.194 Q 103.451 138.894 101.771 139.454 L 101.771 197.694 Z" style="fill: rgb(51, 51, 51);"/>
  <path d="M 183.38 197.694 L 166.44 197.694 L 166.44 124.474 L 183.38 124.474 Z M 185.2 103.054 Q 185.2 107.814 182.12 110.614 Q 179.04 113.414 174.84 113.414 Q 170.5 113.414 167.42 110.614 Q 164.34 107.814 164.34 103.054 Q 164.34 98.154 167.42 95.354 Q 170.5 92.554 174.84 92.554 Q 179.04 92.554 182.12 95.354 Q 185.2 98.154 185.2 103.054 Z" style="fill: rgb(51, 51, 51);"/>
  <path d="M 230.421 199.094 Q 222.861 198.954 217.891 197.414 Q 212.921 195.874 209.981 193.004 Q 207.041 190.134 205.851 185.864 Q 204.661 181.594 204.661 176.134 L 204.661 91.854 L 221.601 89.054 L 221.601 172.914 Q 221.601 175.994 222.091 178.094 Q 222.581 180.194 223.841 181.664 Q 225.101 183.134 227.271 183.904 Q 229.441 184.674 232.801 185.094 Z" style="fill: rgb(51, 51, 51);"/>
  <path d="M 307.139 100.674 L 324.779 100.674 L 324.779 197.694 L 307.139 197.694 L 307.139 154.714 L 264.999 154.714 L 264.999 197.694 L 247.359 197.694 L 247.359 100.674 L 264.999 100.674 L 264.999 139.454 L 307.139 139.454 Z" style="fill: rgb(51, 51, 51);"/>
  <path d="M 343.131 161.434 Q 343.131 151.774 346.001 144.494 Q 348.871 137.214 353.631 132.384 Q 358.391 127.554 364.551 125.104 Q 370.711 122.654 377.151 122.654 Q 392.271 122.654 400.741 132.034 Q 409.211 141.414 409.211 160.034 Q 409.211 161.434 409.141 163.184 Q 409.071 164.934 408.931 166.334 L 360.631 166.334 Q 361.331 175.154 366.861 179.984 Q 372.391 184.814 382.891 184.814 Q 389.051 184.814 394.161 183.694 Q 399.271 182.574 402.211 181.314 L 404.451 195.174 Q 403.051 195.874 400.601 196.644 Q 398.151 197.414 395.001 198.044 Q 391.851 198.674 388.211 199.094 Q 384.571 199.514 380.791 199.514 Q 371.131 199.514 363.991 196.644 Q 356.851 193.774 352.231 188.664 Q 347.611 183.554 345.371 176.624 Q 343.131 169.694 343.131 161.434 Z M 392.271 153.874 Q 392.271 150.374 391.291 147.224 Q 390.311 144.074 388.421 141.764 Q 386.531 139.454 383.801 138.124 Q 381.071 136.794 377.291 136.794 Q 373.371 136.794 370.431 138.264 Q 367.491 139.734 365.461 142.114 Q 363.431 144.494 362.311 147.574 Q 361.191 150.654 360.771 153.874 Z" style="fill: rgb(51, 51, 51);"/>
  <path d="M 452.888 185.794 Q 460.728 185.794 464.788 184.954 L 464.788 166.194 Q 463.388 165.774 460.728 165.354 Q 458.068 164.934 454.848 164.934 Q 452.048 164.934 449.178 165.354 Q 446.308 165.774 443.998 166.894 Q 441.688 168.014 440.288 170.044 Q 438.888 172.074 438.888 175.154 Q 438.888 181.174 442.668 183.484 Q 446.448 185.794 452.888 185.794 Z M 451.488 122.654 Q 459.888 122.654 465.628 124.754 Q 471.368 126.854 474.798 130.634 Q 478.228 134.414 479.698 139.804 Q 481.168 145.194 481.168 151.634 L 481.168 196.014 Q 477.248 196.854 469.338 198.044 Q 461.428 199.234 451.488 199.234 Q 444.908 199.234 439.448 197.974 Q 433.988 196.714 430.138 193.914 Q 426.288 191.114 424.118 186.634 Q 421.948 182.154 421.948 175.574 Q 421.948 169.274 424.398 164.934 Q 426.848 160.594 431.048 157.864 Q 435.248 155.134 440.778 153.944 Q 446.308 152.754 452.328 152.754 Q 455.128 152.754 458.208 153.104 Q 461.288 153.454 464.788 154.294 L 464.788 151.494 Q 464.788 148.554 464.088 145.894 Q 463.388 143.234 461.638 141.204 Q 459.888 139.174 457.018 138.054 Q 454.148 136.934 449.808 136.934 Q 443.928 136.934 439.028 137.774 Q 434.128 138.614 431.048 139.734 L 428.948 126.014 Q 432.168 124.894 438.328 123.774 Q 444.488 122.654 451.488 122.654 Z" style="fill: rgb(51, 51, 51);"/>
  <path d="M 527.358 199.094 Q 519.798 198.954 514.828 197.414 Q 509.858 195.874 506.918 193.004 Q 503.978 190.134 502.788 185.864 Q 501.598 181.594 501.598 176.134 L 501.598 91.854 L 518.538 89.054 L 518.538 172.914 Q 518.538 175.994 519.028 178.094 Q 519.518 180.194 520.778 181.664 Q 522.038 183.134 524.208 183.904 Q 526.378 184.674 529.738 185.094 Z" style="fill: rgb(51, 51, 51);"/>
  <path d="M 542.632 105.154 L 559.572 102.354 L 559.572 124.474 L 585.612 124.474 L 585.612 138.614 L 559.572 138.614 L 559.572 168.434 Q 559.572 177.254 562.372 181.034 Q 565.172 184.814 571.892 184.814 Q 576.512 184.814 580.082 183.834 Q 583.652 182.854 585.752 182.014 L 588.552 195.454 Q 585.612 196.714 580.852 198.044 Q 576.092 199.374 569.652 199.374 Q 561.812 199.374 556.562 197.274 Q 551.312 195.174 548.232 191.184 Q 545.152 187.194 543.892 181.524 Q 542.632 175.854 542.632 168.574 Z" style="fill: rgb(51, 51, 51);"/>
  <path d="M 601.987 197.694 L 601.987 91.854 L 618.927 89.054 L 618.927 125.314 Q 621.727 124.334 625.437 123.634 Q 629.147 122.934 632.787 122.934 Q 641.607 122.934 647.417 125.384 Q 653.227 127.834 656.727 132.244 Q 660.227 136.654 661.697 142.814 Q 663.167 148.974 663.167 156.534 L 663.167 197.694 L 646.227 197.694 L 646.227 159.194 Q 646.227 153.314 645.457 149.184 Q 644.687 145.054 642.937 142.464 Q 641.187 139.874 638.247 138.684 Q 635.307 137.494 630.967 137.494 Q 627.607 137.494 624.107 138.194 Q 620.607 138.894 618.927 139.454 L 618.927 197.694 Z" style="fill: rgb(51, 51, 51);"/>
</svg>